<mxfile host="app.diagrams.net" agent="Mozilla/5.0 (X11; Linux x86_64) AppleWebKit/537.36 (KHTML, like Gecko) Chrome/132.0.0.0 Safari/537.36" version="26.0.10">
  <diagram name="Page-1" id="bfe91b75-5d2c-26a0-9c1d-138518896778">
    <mxGraphModel dx="3385" dy="1965" grid="1" gridSize="10" guides="1" tooltips="1" connect="1" arrows="1" fold="1" page="1" pageScale="1" pageWidth="1654" pageHeight="1169" background="none" math="0" shadow="0">
      <root>
        <mxCell id="0" />
        <mxCell id="1" parent="0" />
        <mxCell id="7c3789c024ecab99-79" value="Campus wing B" style="rounded=1;whiteSpace=wrap;html=1;shadow=0;comic=0;strokeColor=#036897;strokeWidth=2;fillColor=none;fontFamily=Verdana;fontSize=28;fontColor=#6881B3;align=center;arcSize=11;verticalAlign=top;" parent="1" vertex="1">
          <mxGeometry x="90" y="1267.5" width="1065" height="580" as="geometry" />
        </mxCell>
        <mxCell id="7c3789c024ecab99-78" value="Campus wing A" style="rounded=1;whiteSpace=wrap;html=1;shadow=0;comic=0;strokeColor=#036897;strokeWidth=2;fillColor=none;fontFamily=Verdana;fontSize=28;fontColor=#6881B3;align=center;arcSize=11;verticalAlign=top;" parent="1" vertex="1">
          <mxGeometry x="80" y="467.5" width="1065" height="570" as="geometry" />
        </mxCell>
        <mxCell id="7c3789c024ecab99-55" style="edgeStyle=none;html=1;labelBackgroundColor=none;endArrow=none;endFill=0;strokeWidth=2;fontFamily=Verdana;fontSize=28;fontColor=#6881B3;" parent="1" source="7c3789c024ecab99-8" target="7c3789c024ecab99-54" edge="1">
          <mxGeometry relative="1" as="geometry">
            <mxPoint x="1660" y="1254.5000000000002" as="targetPoint" />
          </mxGeometry>
        </mxCell>
        <mxCell id="7c3789c024ecab99-8" value="" style="fontColor=#0066CC;verticalAlign=top;verticalLabelPosition=bottom;labelPosition=center;align=center;html=1;fillColor=#CCCCCC;strokeColor=#6881B3;gradientColor=none;gradientDirection=north;strokeWidth=2;shape=mxgraph.networks.firewall;rounded=0;shadow=0;comic=0;" parent="1" vertex="1">
          <mxGeometry x="1545" y="1419.08" width="100" height="100" as="geometry" />
        </mxCell>
        <mxCell id="7c3789c024ecab99-18" style="edgeStyle=orthogonalEdgeStyle;html=1;labelBackgroundColor=none;endArrow=none;endFill=0;strokeWidth=2;fontFamily=Verdana;fontSize=15;fontColor=#036897;" parent="1" source="7c3789c024ecab99-9" target="7c3789c024ecab99-10" edge="1">
          <mxGeometry relative="1" as="geometry">
            <mxPoint x="1110" y="727.5" as="targetPoint" />
            <Array as="points">
              <mxPoint x="1300" y="610" />
            </Array>
          </mxGeometry>
        </mxCell>
        <mxCell id="7c3789c024ecab99-52" style="edgeStyle=none;html=1;labelBackgroundColor=none;endArrow=none;endFill=0;strokeWidth=2;fontFamily=Verdana;fontSize=15;fontColor=#036897;" parent="1" source="7c3789c024ecab99-10" target="7c3789c024ecab99-8" edge="1">
          <mxGeometry relative="1" as="geometry">
            <mxPoint x="1549.9999999999995" y="1334.5" as="targetPoint" />
          </mxGeometry>
        </mxCell>
        <mxCell id="7c3789c024ecab99-10" value="" style="fontColor=#0066CC;verticalAlign=top;verticalLabelPosition=bottom;labelPosition=center;align=center;html=1;fillColor=#CCCCCC;strokeColor=#6881B3;gradientColor=none;gradientDirection=north;strokeWidth=2;shape=mxgraph.networks.router;rounded=0;shadow=0;comic=0;" parent="1" vertex="1">
          <mxGeometry x="1290" y="1454.08" width="100" height="30" as="geometry" />
        </mxCell>
        <mxCell id="7c3789c024ecab99-5" value="" style="fontColor=#0066CC;verticalAlign=top;verticalLabelPosition=bottom;labelPosition=center;align=center;html=1;fillColor=#CCCCCC;strokeColor=#6881B3;gradientColor=none;gradientDirection=north;strokeWidth=2;shape=mxgraph.networks.pc;rounded=0;shadow=0;comic=0;" parent="1" vertex="1">
          <mxGeometry x="860.0000000000002" y="812.5" width="100" height="70" as="geometry" />
        </mxCell>
        <mxCell id="7c3789c024ecab99-6" value="" style="fontColor=#0066CC;verticalAlign=top;verticalLabelPosition=bottom;labelPosition=center;align=center;html=1;fillColor=#CCCCCC;strokeColor=#6881B3;gradientColor=none;gradientDirection=north;strokeWidth=2;shape=mxgraph.networks.printer;rounded=0;shadow=0;comic=0;" parent="1" vertex="1">
          <mxGeometry x="990.0000000000002" y="797.5" width="100" height="100" as="geometry" />
        </mxCell>
        <mxCell id="7c3789c024ecab99-9" value="" style="fontColor=#0066CC;verticalAlign=top;verticalLabelPosition=bottom;labelPosition=center;align=center;html=1;fillColor=#CCCCCC;strokeColor=#6881B3;gradientColor=none;gradientDirection=north;strokeWidth=2;shape=mxgraph.networks.wireless_hub;rounded=0;shadow=0;comic=0;" parent="1" vertex="1">
          <mxGeometry x="675.0000000000002" y="607.5" width="100" height="85" as="geometry" />
        </mxCell>
        <mxCell id="7c3789c024ecab99-13" style="edgeStyle=none;html=1;labelBackgroundColor=none;endArrow=none;endFill=0;strokeWidth=2;fontFamily=Verdana;fontSize=15;fontColor=#036897;" parent="1" target="7c3789c024ecab99-9" edge="1">
          <mxGeometry relative="1" as="geometry">
            <mxPoint x="655.0000000000002" y="727.5" as="targetPoint" />
            <mxPoint x="235.00000000000045" y="815.6018518518517" as="sourcePoint" />
          </mxGeometry>
        </mxCell>
        <mxCell id="7c3789c024ecab99-14" style="edgeStyle=none;html=1;labelBackgroundColor=none;endArrow=none;endFill=0;strokeWidth=2;fontFamily=Verdana;fontSize=15;fontColor=#036897;" parent="1" target="7c3789c024ecab99-9" edge="1">
          <mxGeometry relative="1" as="geometry">
            <mxPoint x="495.00000000000045" y="799.9107142857142" as="sourcePoint" />
          </mxGeometry>
        </mxCell>
        <mxCell id="7c3789c024ecab99-15" style="edgeStyle=none;html=1;labelBackgroundColor=none;endArrow=none;endFill=0;strokeWidth=2;fontFamily=Verdana;fontSize=15;fontColor=#036897;" parent="1" target="7c3789c024ecab99-9" edge="1">
          <mxGeometry relative="1" as="geometry">
            <mxPoint x="595.6849315068494" y="797.5" as="sourcePoint" />
          </mxGeometry>
        </mxCell>
        <mxCell id="7c3789c024ecab99-16" style="edgeStyle=none;html=1;labelBackgroundColor=none;endArrow=none;endFill=0;strokeWidth=2;fontFamily=Verdana;fontSize=15;fontColor=#036897;" parent="1" source="7c3789c024ecab99-5" target="7c3789c024ecab99-9" edge="1">
          <mxGeometry relative="1" as="geometry" />
        </mxCell>
        <mxCell id="7c3789c024ecab99-17" style="edgeStyle=none;html=1;labelBackgroundColor=none;endArrow=none;endFill=0;strokeWidth=2;fontFamily=Verdana;fontSize=15;fontColor=#036897;" parent="1" source="7c3789c024ecab99-6" target="7c3789c024ecab99-9" edge="1">
          <mxGeometry relative="1" as="geometry" />
        </mxCell>
        <mxCell id="7c3789c024ecab99-11" value="" style="html=1;fillColor=#CCCCCC;strokeColor=#6881B3;gradientColor=none;gradientDirection=north;strokeWidth=2;shape=mxgraph.networks.comm_link_edge;html=1;labelBackgroundColor=none;endArrow=none;endFill=0;fontFamily=Verdana;fontSize=20;" parent="1" source="7c3789c024ecab99-9" target="7c3789c024ecab99-12" edge="1">
          <mxGeometry width="100" height="100" relative="1" as="geometry">
            <mxPoint x="905.0000000000002" y="707.5" as="sourcePoint" />
            <mxPoint x="608.0000000000002" y="620.5" as="targetPoint" />
          </mxGeometry>
        </mxCell>
        <mxCell id="7c3789c024ecab99-12" value="" style="fontColor=#0066CC;verticalAlign=top;verticalLabelPosition=bottom;labelPosition=center;align=center;html=1;fillColor=#CCCCCC;strokeColor=#6881B3;gradientColor=none;gradientDirection=north;strokeWidth=2;shape=mxgraph.networks.mobile;rounded=0;shadow=0;comic=0;" parent="1" vertex="1">
          <mxGeometry x="325.0000000000003" y="517.5" width="50" height="100" as="geometry" />
        </mxCell>
        <mxCell id="7c3789c024ecab99-27" value="" style="fontColor=#0066CC;verticalAlign=top;verticalLabelPosition=bottom;labelPosition=center;align=center;html=1;fillColor=#CCCCCC;strokeColor=#6881B3;gradientColor=none;gradientDirection=north;strokeWidth=2;shape=mxgraph.networks.pc;rounded=0;shadow=0;comic=0;" parent="1" vertex="1">
          <mxGeometry x="875.0000000000002" y="1562.5" width="100" height="70" as="geometry" />
        </mxCell>
        <mxCell id="7c3789c024ecab99-29" value="" style="fontColor=#0066CC;verticalAlign=top;verticalLabelPosition=bottom;labelPosition=center;align=center;html=1;fillColor=#CCCCCC;strokeColor=#6881B3;gradientColor=none;gradientDirection=north;strokeWidth=2;shape=mxgraph.networks.printer;rounded=0;shadow=0;comic=0;" parent="1" vertex="1">
          <mxGeometry x="1005.0000000000002" y="1547.5" width="100" height="100" as="geometry" />
        </mxCell>
        <mxCell id="7c3789c024ecab99-50" style="edgeStyle=orthogonalEdgeStyle;html=1;labelBackgroundColor=none;endArrow=none;endFill=0;strokeWidth=2;fontFamily=Verdana;fontSize=15;fontColor=#036897;" parent="1" source="7c3789c024ecab99-30" target="7c3789c024ecab99-10" edge="1">
          <mxGeometry relative="1" as="geometry">
            <mxPoint x="1079.9999999999995" y="827.5" as="targetPoint" />
            <mxPoint x="1200" y="1037.5" as="sourcePoint" />
            <Array as="points">
              <mxPoint x="732" y="1098" />
              <mxPoint x="1250" y="1098" />
              <mxPoint x="1250" y="1469" />
            </Array>
          </mxGeometry>
        </mxCell>
        <mxCell id="7c3789c024ecab99-30" value="" style="fontColor=#0066CC;verticalAlign=top;verticalLabelPosition=bottom;labelPosition=center;align=center;html=1;fillColor=#CCCCCC;strokeColor=#6881B3;gradientColor=none;gradientDirection=north;strokeWidth=2;shape=mxgraph.networks.wireless_hub;rounded=0;shadow=0;comic=0;" parent="1" vertex="1">
          <mxGeometry x="682.0000000000002" y="1380.5" width="100" height="85" as="geometry" />
        </mxCell>
        <mxCell id="7c3789c024ecab99-19" style="edgeStyle=none;html=1;labelBackgroundColor=none;endArrow=none;endFill=0;strokeWidth=2;fontFamily=Verdana;fontSize=15;fontColor=#036897;" parent="1" target="7c3789c024ecab99-30" edge="1">
          <mxGeometry relative="1" as="geometry">
            <mxPoint x="662.0000000000002" y="1500.5" as="targetPoint" />
            <mxPoint x="242.00000000000045" y="1588.6018518518517" as="sourcePoint" />
          </mxGeometry>
        </mxCell>
        <mxCell id="7c3789c024ecab99-22" style="edgeStyle=none;html=1;labelBackgroundColor=none;endArrow=none;endFill=0;strokeWidth=2;fontFamily=Verdana;fontSize=15;fontColor=#036897;" parent="1" target="7c3789c024ecab99-30" edge="1">
          <mxGeometry relative="1" as="geometry">
            <mxPoint x="502.00000000000045" y="1572.9107142857142" as="sourcePoint" />
          </mxGeometry>
        </mxCell>
        <mxCell id="7c3789c024ecab99-24" style="edgeStyle=none;html=1;labelBackgroundColor=none;endArrow=none;endFill=0;strokeWidth=2;fontFamily=Verdana;fontSize=15;fontColor=#036897;" parent="1" target="7c3789c024ecab99-30" edge="1">
          <mxGeometry relative="1" as="geometry">
            <mxPoint x="602.6849315068494" y="1570.5" as="sourcePoint" />
          </mxGeometry>
        </mxCell>
        <mxCell id="7c3789c024ecab99-26" style="edgeStyle=none;html=1;labelBackgroundColor=none;endArrow=none;endFill=0;strokeWidth=2;fontFamily=Verdana;fontSize=15;fontColor=#036897;" parent="1" source="7c3789c024ecab99-27" target="7c3789c024ecab99-30" edge="1">
          <mxGeometry relative="1" as="geometry" />
        </mxCell>
        <mxCell id="7c3789c024ecab99-28" style="edgeStyle=none;html=1;labelBackgroundColor=none;endArrow=none;endFill=0;strokeWidth=2;fontFamily=Verdana;fontSize=15;fontColor=#036897;" parent="1" source="7c3789c024ecab99-29" target="7c3789c024ecab99-30" edge="1">
          <mxGeometry relative="1" as="geometry" />
        </mxCell>
        <mxCell id="7c3789c024ecab99-31" value="" style="html=1;fillColor=#CCCCCC;strokeColor=#6881B3;gradientColor=none;gradientDirection=north;strokeWidth=2;shape=mxgraph.networks.comm_link_edge;html=1;labelBackgroundColor=none;endArrow=none;endFill=0;fontFamily=Verdana;fontSize=20;" parent="1" source="7c3789c024ecab99-30" target="7c3789c024ecab99-32" edge="1">
          <mxGeometry width="100" height="100" relative="1" as="geometry">
            <mxPoint x="912.0000000000002" y="1480.5" as="sourcePoint" />
            <mxPoint x="615.0000000000002" y="1393.5" as="targetPoint" />
          </mxGeometry>
        </mxCell>
        <mxCell id="7c3789c024ecab99-32" value="" style="fontColor=#0066CC;verticalAlign=top;verticalLabelPosition=bottom;labelPosition=center;align=center;html=1;fillColor=#CCCCCC;strokeColor=#6881B3;gradientColor=none;gradientDirection=north;strokeWidth=2;shape=mxgraph.networks.mobile;rounded=0;shadow=0;comic=0;" parent="1" vertex="1">
          <mxGeometry x="332.0000000000003" y="1290.5" width="50" height="100" as="geometry" />
        </mxCell>
        <mxCell id="7c3789c024ecab99-53" value="Internet" style="html=1;fillColor=#CCCCCC;strokeColor=#6881B3;gradientColor=none;gradientDirection=north;strokeWidth=2;shape=mxgraph.networks.cloud;fontColor=#6881B3;rounded=0;shadow=0;comic=0;align=center;fontSize=28;" parent="1" vertex="1">
          <mxGeometry x="1960" y="1240.5" width="330" height="140" as="geometry" />
        </mxCell>
        <mxCell id="7c3789c024ecab99-56" style="edgeStyle=none;html=1;labelBackgroundColor=none;endArrow=none;endFill=0;strokeWidth=2;fontFamily=Verdana;fontSize=28;fontColor=#6881B3;" parent="1" source="7c3789c024ecab99-54" target="7c3789c024ecab99-53" edge="1">
          <mxGeometry relative="1" as="geometry" />
        </mxCell>
        <mxCell id="7c3789c024ecab99-54" value="" style="fontColor=#0066CC;verticalAlign=top;verticalLabelPosition=bottom;labelPosition=center;align=center;html=1;fillColor=#CCCCCC;strokeColor=#6881B3;gradientColor=none;gradientDirection=north;strokeWidth=2;shape=mxgraph.networks.router;rounded=0;shadow=0;comic=0;" parent="1" vertex="1">
          <mxGeometry x="1780" y="1454.08" width="100" height="30" as="geometry" />
        </mxCell>
        <mxCell id="7c3789c024ecab99-60" style="edgeStyle=none;html=1;labelBackgroundColor=none;endArrow=none;endFill=0;strokeWidth=2;fontFamily=Verdana;fontSize=28;fontColor=#6881B3;entryX=0.72;entryY=-0.133;entryDx=0;entryDy=0;entryPerimeter=0;exitX=0.5;exitY=0;exitDx=0;exitDy=0;exitPerimeter=0;" parent="1" source="7c3789c024ecab99-57" target="7c3789c024ecab99-10" edge="1">
          <mxGeometry relative="1" as="geometry">
            <Array as="points">
              <mxPoint x="1380" y="1177.5" />
            </Array>
          </mxGeometry>
        </mxCell>
        <mxCell id="7c3789c024ecab99-57" value="" style="fontColor=#0066CC;verticalAlign=top;verticalLabelPosition=bottom;labelPosition=center;align=center;html=1;fillColor=#CCCCCC;strokeColor=#6881B3;gradientColor=none;gradientDirection=north;strokeWidth=2;shape=mxgraph.networks.storage;rounded=0;shadow=0;comic=0;" parent="1" vertex="1">
          <mxGeometry x="1420" y="1007.5" width="100" height="100" as="geometry" />
        </mxCell>
        <mxCell id="7c3789c024ecab99-59" style="edgeStyle=none;html=1;labelBackgroundColor=none;endArrow=none;endFill=0;strokeWidth=2;fontFamily=Verdana;fontSize=28;fontColor=#6881B3;entryX=1.02;entryY=0.38;entryDx=0;entryDy=0;entryPerimeter=0;" parent="1" source="7c3789c024ecab99-58" target="7c3789c024ecab99-57" edge="1">
          <mxGeometry relative="1" as="geometry">
            <mxPoint x="1660" y="1037.5" as="targetPoint" />
            <Array as="points">
              <mxPoint x="1620" y="917.5" />
            </Array>
          </mxGeometry>
        </mxCell>
        <mxCell id="7c3789c024ecab99-58" value="" style="fontColor=#0066CC;verticalAlign=top;verticalLabelPosition=bottom;labelPosition=center;align=center;html=1;fillColor=#CCCCCC;strokeColor=#6881B3;gradientColor=none;gradientDirection=north;strokeWidth=2;shape=mxgraph.networks.server_storage;rounded=0;shadow=0;comic=0;" parent="1" vertex="1">
          <mxGeometry x="2020" y="727.5" width="105" height="105" as="geometry" />
        </mxCell>
        <mxCell id="-hd8qDOLfZRJdEg8atGm-19" value="USM Network&lt;br&gt;(WiFi &amp;amp; Ethernet)" style="text;html=1;align=center;verticalAlign=middle;whiteSpace=wrap;rounded=0;strokeWidth=8;fontSize=29;" vertex="1" parent="1">
          <mxGeometry x="1160" y="692.5" width="100" height="10" as="geometry" />
        </mxCell>
        <mxCell id="-hd8qDOLfZRJdEg8atGm-22" value="USM Firewall&lt;div&gt;&lt;br&gt;&lt;/div&gt;" style="text;html=1;align=center;verticalAlign=middle;whiteSpace=wrap;rounded=0;strokeWidth=8;fontSize=29;" vertex="1" parent="1">
          <mxGeometry x="1560" y="1577.5" width="60" height="30" as="geometry" />
        </mxCell>
        <mxCell id="-hd8qDOLfZRJdEg8atGm-25" value="USM Network&lt;br&gt;(WiFi &amp;amp; Ethernet)" style="text;html=1;align=center;verticalAlign=middle;whiteSpace=wrap;rounded=0;strokeWidth=8;fontSize=29;" vertex="1" parent="1">
          <mxGeometry x="775" y="1177.5" width="100" height="30" as="geometry" />
        </mxCell>
        <mxCell id="-hd8qDOLfZRJdEg8atGm-26" value="USM WiFi Access Point" style="text;html=1;align=center;verticalAlign=middle;whiteSpace=wrap;rounded=0;strokeWidth=8;fontSize=29;" vertex="1" parent="1">
          <mxGeometry x="775" y="537.5" width="180" height="30" as="geometry" />
        </mxCell>
        <mxCell id="-hd8qDOLfZRJdEg8atGm-28" value="" style="image;aspect=fixed;html=1;points=[];align=center;fontSize=12;image=img/lib/azure2/other/Defender_Meter.svg;" vertex="1" parent="1">
          <mxGeometry x="200" y="817.5" width="68" height="68" as="geometry" />
        </mxCell>
        <mxCell id="-hd8qDOLfZRJdEg8atGm-29" value="" style="image;aspect=fixed;html=1;points=[];align=center;fontSize=12;image=img/lib/azure2/other/Defender_Meter.svg;" vertex="1" parent="1">
          <mxGeometry x="418" y="812.5" width="68" height="68" as="geometry" />
        </mxCell>
        <mxCell id="-hd8qDOLfZRJdEg8atGm-30" value="" style="image;aspect=fixed;html=1;points=[];align=center;fontSize=12;image=img/lib/azure2/other/Defender_Meter.svg;" vertex="1" parent="1">
          <mxGeometry x="570" y="812.5" width="68" height="68" as="geometry" />
        </mxCell>
        <mxCell id="-hd8qDOLfZRJdEg8atGm-31" value="" style="image;aspect=fixed;html=1;points=[];align=center;fontSize=12;image=img/lib/azure2/other/Defender_Meter.svg;" vertex="1" parent="1">
          <mxGeometry x="220" y="1590.5" width="68" height="68" as="geometry" />
        </mxCell>
        <mxCell id="-hd8qDOLfZRJdEg8atGm-32" value="" style="image;aspect=fixed;html=1;points=[];align=center;fontSize=12;image=img/lib/azure2/other/Defender_Meter.svg;" vertex="1" parent="1">
          <mxGeometry x="438" y="1585.5" width="68" height="68" as="geometry" />
        </mxCell>
        <mxCell id="-hd8qDOLfZRJdEg8atGm-33" value="" style="image;aspect=fixed;html=1;points=[];align=center;fontSize=12;image=img/lib/azure2/other/Defender_Meter.svg;" vertex="1" parent="1">
          <mxGeometry x="590" y="1585.5" width="68" height="68" as="geometry" />
        </mxCell>
        <mxCell id="-hd8qDOLfZRJdEg8atGm-34" value="Android Device&lt;br&gt;(Prepay app)" style="text;html=1;align=center;verticalAlign=middle;whiteSpace=wrap;rounded=0;strokeWidth=8;fontSize=29;" vertex="1" parent="1">
          <mxGeometry x="200" y="597.5" width="100" height="10" as="geometry" />
        </mxCell>
        <mxCell id="-hd8qDOLfZRJdEg8atGm-35" value="Android Device&lt;br&gt;(Prepay app)" style="text;html=1;align=center;verticalAlign=middle;whiteSpace=wrap;rounded=0;strokeWidth=8;fontSize=29;" vertex="1" parent="1">
          <mxGeometry x="190" y="1335.5" width="100" height="10" as="geometry" />
        </mxCell>
        <mxCell id="-hd8qDOLfZRJdEg8atGm-38" value="Meter&lt;br&gt;(MAC Addr)" style="text;html=1;align=center;verticalAlign=middle;whiteSpace=wrap;rounded=0;strokeWidth=8;fontSize=29;" vertex="1" parent="1">
          <mxGeometry x="204" y="897.5" width="60" height="100" as="geometry" />
        </mxCell>
        <mxCell id="-hd8qDOLfZRJdEg8atGm-40" value="Meter&lt;br&gt;(MAC Addr)" style="text;html=1;align=center;verticalAlign=middle;whiteSpace=wrap;rounded=0;strokeWidth=8;fontSize=29;" vertex="1" parent="1">
          <mxGeometry x="418" y="897.5" width="60" height="100" as="geometry" />
        </mxCell>
        <mxCell id="-hd8qDOLfZRJdEg8atGm-41" value="Meter&lt;br&gt;(MAC Addr)" style="text;html=1;align=center;verticalAlign=middle;whiteSpace=wrap;rounded=0;strokeWidth=8;fontSize=29;" vertex="1" parent="1">
          <mxGeometry x="574" y="897.5" width="60" height="100" as="geometry" />
        </mxCell>
        <mxCell id="-hd8qDOLfZRJdEg8atGm-42" value="Meter&lt;br&gt;(MAC Addr)" style="text;html=1;align=center;verticalAlign=middle;whiteSpace=wrap;rounded=0;strokeWidth=8;fontSize=29;" vertex="1" parent="1">
          <mxGeometry x="220" y="1677.5" width="60" height="100" as="geometry" />
        </mxCell>
        <mxCell id="-hd8qDOLfZRJdEg8atGm-43" value="Meter&lt;br&gt;(MAC Addr)" style="text;html=1;align=center;verticalAlign=middle;whiteSpace=wrap;rounded=0;strokeWidth=8;fontSize=29;" vertex="1" parent="1">
          <mxGeometry x="434" y="1677.5" width="60" height="100" as="geometry" />
        </mxCell>
        <mxCell id="-hd8qDOLfZRJdEg8atGm-44" value="Meter&lt;br&gt;(MAC Addr)" style="text;html=1;align=center;verticalAlign=middle;whiteSpace=wrap;rounded=0;strokeWidth=8;fontSize=29;" vertex="1" parent="1">
          <mxGeometry x="590" y="1677.5" width="60" height="100" as="geometry" />
        </mxCell>
        <mxCell id="-hd8qDOLfZRJdEg8atGm-45" value="USM Docker Host &lt;br&gt;(Admin Portal Container)" style="text;html=1;align=center;verticalAlign=middle;whiteSpace=wrap;rounded=0;strokeWidth=8;fontSize=29;" vertex="1" parent="1">
          <mxGeometry x="1340" y="1137.5" width="430" height="30" as="geometry" />
        </mxCell>
        <mxCell id="-hd8qDOLfZRJdEg8atGm-47" value="USM Kolej Admin Office&lt;br&gt;(Usage Monitoring &amp;amp; Tenant Management)" style="text;html=1;align=center;verticalAlign=middle;whiteSpace=wrap;rounded=0;strokeWidth=8;fontSize=29;" vertex="1" parent="1">
          <mxGeometry x="782" y="1701.5" width="355" height="30" as="geometry" />
        </mxCell>
        <mxCell id="-hd8qDOLfZRJdEg8atGm-49" value="USM WiFi Access Point" style="text;html=1;align=center;verticalAlign=middle;whiteSpace=wrap;rounded=0;strokeWidth=8;fontSize=29;" vertex="1" parent="1">
          <mxGeometry x="790" y="1357.5" width="180" height="30" as="geometry" />
        </mxCell>
        <mxCell id="-hd8qDOLfZRJdEg8atGm-52" value="USM PostgreSQL Database &lt;br&gt;(Meter Data)" style="text;html=1;align=center;verticalAlign=middle;whiteSpace=wrap;rounded=0;strokeWidth=8;fontSize=29;" vertex="1" parent="1">
          <mxGeometry x="2140" y="780" width="260" height="30" as="geometry" />
        </mxCell>
        <mxCell id="-hd8qDOLfZRJdEg8atGm-54" value="" style="image;points=[];aspect=fixed;html=1;align=center;shadow=0;dashed=0;image=img/lib/allied_telesis/buildings/Building_Cluster.svg;" vertex="1" parent="1">
          <mxGeometry x="2030" y="1527.79" width="211.2" height="193.42" as="geometry" />
        </mxCell>
        <mxCell id="-hd8qDOLfZRJdEg8atGm-55" value="&lt;span style=&quot;color: rgb(104, 129, 179); font-family: Helvetica; font-size: 28px; font-style: normal; font-variant-ligatures: normal; font-variant-caps: normal; font-weight: 400; letter-spacing: normal; orphans: 2; text-align: center; text-indent: 0px; text-transform: none; widows: 2; word-spacing: 0px; -webkit-text-stroke-width: 0px; white-space: nowrap; background-color: rgb(251, 251, 251); text-decoration-thickness: initial; text-decoration-style: initial; text-decoration-color: initial; float: none; display: inline !important;&quot;&gt;Future Expansion&lt;/span&gt;&lt;br style=&quot;forced-color-adjust: none; color: rgb(104, 129, 179); font-family: Helvetica; font-size: 28px; font-style: normal; font-variant-ligatures: normal; font-variant-caps: normal; font-weight: 400; letter-spacing: normal; orphans: 2; text-align: center; text-indent: 0px; text-transform: none; widows: 2; word-spacing: 0px; -webkit-text-stroke-width: 0px; white-space: nowrap; background-color: rgb(251, 251, 251); text-decoration-thickness: initial; text-decoration-style: initial; text-decoration-color: initial;&quot;&gt;&lt;span style=&quot;color: rgb(104, 129, 179); font-family: Helvetica; font-size: 28px; font-style: normal; font-variant-ligatures: normal; font-variant-caps: normal; font-weight: 400; letter-spacing: normal; orphans: 2; text-align: center; text-indent: 0px; text-transform: none; widows: 2; word-spacing: 0px; -webkit-text-stroke-width: 0px; white-space: nowrap; background-color: rgb(251, 251, 251); text-decoration-thickness: initial; text-decoration-style: initial; text-decoration-color: initial; float: none; display: inline !important;&quot;&gt;Campus 2&lt;/span&gt;&lt;br style=&quot;forced-color-adjust: none; color: rgb(104, 129, 179); font-family: Helvetica; font-size: 28px; font-style: normal; font-variant-ligatures: normal; font-variant-caps: normal; font-weight: 400; letter-spacing: normal; orphans: 2; text-align: center; text-indent: 0px; text-transform: none; widows: 2; word-spacing: 0px; -webkit-text-stroke-width: 0px; white-space: nowrap; background-color: rgb(251, 251, 251); text-decoration-thickness: initial; text-decoration-style: initial; text-decoration-color: initial;&quot;&gt;&lt;span style=&quot;color: rgb(104, 129, 179); font-family: Helvetica; font-size: 28px; font-style: normal; font-variant-ligatures: normal; font-variant-caps: normal; font-weight: 400; letter-spacing: normal; orphans: 2; text-align: center; text-indent: 0px; text-transform: none; widows: 2; word-spacing: 0px; -webkit-text-stroke-width: 0px; white-space: nowrap; background-color: rgb(251, 251, 251); text-decoration-thickness: initial; text-decoration-style: initial; text-decoration-color: initial; float: none; display: inline !important;&quot;&gt;(Kelantan)&lt;/span&gt;" style="text;whiteSpace=wrap;html=1;" vertex="1" parent="1">
          <mxGeometry x="2030" y="1721.21" width="250" height="120" as="geometry" />
        </mxCell>
        <mxCell id="-hd8qDOLfZRJdEg8atGm-57" value="" style="fontColor=#0066CC;verticalAlign=top;verticalLabelPosition=bottom;labelPosition=center;align=center;html=1;fillColor=#CCCCCC;strokeColor=#6881B3;gradientColor=none;gradientDirection=north;strokeWidth=2;shape=mxgraph.networks.server_storage;rounded=0;shadow=0;comic=0;" vertex="1" parent="1">
          <mxGeometry x="2012.5" y="532" width="105" height="105" as="geometry" />
        </mxCell>
        <mxCell id="-hd8qDOLfZRJdEg8atGm-59" value="USM MySQL Database &lt;br&gt;(User Data)" style="text;html=1;align=center;verticalAlign=middle;whiteSpace=wrap;rounded=0;strokeWidth=8;fontSize=29;" vertex="1" parent="1">
          <mxGeometry x="2130" y="570" width="260" height="30" as="geometry" />
        </mxCell>
        <mxCell id="-hd8qDOLfZRJdEg8atGm-62" value="Real-time Meter Data Feed&lt;div&gt;&lt;br&gt;&lt;/div&gt;" style="text;html=1;align=center;verticalAlign=middle;whiteSpace=wrap;rounded=0;strokeWidth=8;fontSize=29;rotation=-15;" vertex="1" parent="1">
          <mxGeometry x="1570" y="627" width="420" height="10" as="geometry" />
        </mxCell>
        <mxCell id="-hd8qDOLfZRJdEg8atGm-63" value="&lt;div&gt;User Information&lt;/div&gt;" style="text;html=1;align=center;verticalAlign=middle;whiteSpace=wrap;rounded=0;strokeWidth=8;fontSize=29;rotation=-15;" vertex="1" parent="1">
          <mxGeometry x="1620" y="826.5" width="420" height="10" as="geometry" />
        </mxCell>
        <mxCell id="-hd8qDOLfZRJdEg8atGm-66" style="edgeStyle=none;html=1;labelBackgroundColor=none;endArrow=none;endFill=0;strokeWidth=2;fontFamily=Verdana;fontSize=28;fontColor=#6881B3;dashed=1;" edge="1" parent="1" source="7c3789c024ecab99-54" target="-hd8qDOLfZRJdEg8atGm-54">
          <mxGeometry relative="1" as="geometry">
            <mxPoint x="1844" y="1454.5" as="sourcePoint" />
            <mxPoint x="2027" y="1264.5" as="targetPoint" />
            <Array as="points">
              <mxPoint x="1960" y="1527.5" />
            </Array>
          </mxGeometry>
        </mxCell>
        <mxCell id="-hd8qDOLfZRJdEg8atGm-67" value="USM Kolej Admin Office&lt;br&gt;(Usage Monitoring &amp;amp; Tenant Management)" style="text;html=1;align=center;verticalAlign=middle;whiteSpace=wrap;rounded=0;strokeWidth=8;fontSize=29;" vertex="1" parent="1">
          <mxGeometry x="782" y="948.5" width="355" height="30" as="geometry" />
        </mxCell>
        <mxCell id="-hd8qDOLfZRJdEg8atGm-69" value="Payment" style="strokeColor=#dddddd;shadow=1;strokeWidth=1;rounded=1;absoluteArcSize=1;arcSize=2;labelPosition=center;verticalLabelPosition=middle;align=center;verticalAlign=bottom;spacingLeft=0;fontColor=#999999;fontSize=12;whiteSpace=wrap;spacingBottom=2;html=1;" vertex="1" parent="1">
          <mxGeometry x="2000" y="978.5" width="130" height="102.5" as="geometry" />
        </mxCell>
        <mxCell id="-hd8qDOLfZRJdEg8atGm-70" value="" style="sketch=0;dashed=0;connectable=0;html=1;fillColor=#757575;strokeColor=none;shape=mxgraph.gcp2.payment;part=1;" vertex="1" parent="-hd8qDOLfZRJdEg8atGm-69">
          <mxGeometry x="0.5" width="50" height="40" relative="1" as="geometry">
            <mxPoint x="-25" y="15" as="offset" />
          </mxGeometry>
        </mxCell>
        <mxCell id="-hd8qDOLfZRJdEg8atGm-72" value="USM Payment Gateway" style="text;html=1;align=center;verticalAlign=middle;whiteSpace=wrap;rounded=0;strokeWidth=8;fontSize=29;" vertex="1" parent="1">
          <mxGeometry x="1942.5" y="1117.5" width="260" height="30" as="geometry" />
        </mxCell>
        <mxCell id="-hd8qDOLfZRJdEg8atGm-73" style="edgeStyle=none;html=1;labelBackgroundColor=none;endArrow=none;endFill=0;strokeWidth=2;fontFamily=Verdana;fontSize=28;fontColor=#6881B3;entryX=1;entryY=0.86;entryDx=0;entryDy=0;entryPerimeter=0;" edge="1" parent="1" target="7c3789c024ecab99-57">
          <mxGeometry relative="1" as="geometry">
            <mxPoint x="1502" y="1277.27" as="targetPoint" />
            <mxPoint x="2000" y="1027.27" as="sourcePoint" />
            <Array as="points">
              <mxPoint x="1620" y="1093.5" />
            </Array>
          </mxGeometry>
        </mxCell>
        <mxCell id="-hd8qDOLfZRJdEg8atGm-74" value="&lt;div&gt;Payment Confirmation&lt;/div&gt;" style="text;html=1;align=center;verticalAlign=middle;whiteSpace=wrap;rounded=0;strokeWidth=8;fontSize=29;rotation=-10;" vertex="1" parent="1">
          <mxGeometry x="1600" y="1027.5" width="420" height="10" as="geometry" />
        </mxCell>
        <mxCell id="-hd8qDOLfZRJdEg8atGm-75" value="TCP/IP &lt;br&gt;Connection" style="text;html=1;align=left;verticalAlign=middle;whiteSpace=wrap;rounded=0;strokeWidth=8;fontSize=29;fontColor=#66B2FF;" vertex="1" parent="1">
          <mxGeometry x="1380" y="1267.5" width="430" height="30" as="geometry" />
        </mxCell>
        <mxCell id="-hd8qDOLfZRJdEg8atGm-78" value="TCP/IP Port 3307" style="text;html=1;align=left;verticalAlign=middle;whiteSpace=wrap;rounded=0;strokeWidth=8;fontSize=29;fontColor=light-dark(#66B2FF,#EDEDED);rotation=-15;" vertex="1" parent="1">
          <mxGeometry x="1650" y="859.5" width="430" height="50" as="geometry" />
        </mxCell>
        <mxCell id="-hd8qDOLfZRJdEg8atGm-79" value="" style="fontColor=#0066CC;verticalAlign=top;verticalLabelPosition=bottom;labelPosition=center;align=center;html=1;fillColor=#CCCCCC;strokeColor=#6881B3;gradientColor=none;gradientDirection=north;strokeWidth=2;shape=mxgraph.networks.server_storage;rounded=0;shadow=0;comic=0;" vertex="1" parent="1">
          <mxGeometry x="1593.75" y="280" width="105" height="105" as="geometry" />
        </mxCell>
        <mxCell id="-hd8qDOLfZRJdEg8atGm-99" style="edgeStyle=orthogonalEdgeStyle;rounded=0;orthogonalLoop=1;jettySize=auto;html=1;entryX=0.87;entryY=0.14;entryDx=0;entryDy=0;entryPerimeter=0;" edge="1" parent="1" source="-hd8qDOLfZRJdEg8atGm-80" target="7c3789c024ecab99-58">
          <mxGeometry relative="1" as="geometry">
            <mxPoint x="2150" y="710" as="targetPoint" />
            <Array as="points">
              <mxPoint x="2160" y="333" />
              <mxPoint x="2160" y="670" />
              <mxPoint x="2111" y="670" />
            </Array>
          </mxGeometry>
        </mxCell>
        <mxCell id="-hd8qDOLfZRJdEg8atGm-105" style="edgeStyle=orthogonalEdgeStyle;rounded=0;orthogonalLoop=1;jettySize=auto;html=1;entryX=1;entryY=0.5;entryDx=0;entryDy=0;" edge="1" parent="1" source="-hd8qDOLfZRJdEg8atGm-80" target="-hd8qDOLfZRJdEg8atGm-69">
          <mxGeometry relative="1" as="geometry">
            <mxPoint x="2200" y="1050" as="targetPoint" />
            <Array as="points">
              <mxPoint x="2370" y="333" />
              <mxPoint x="2370" y="682" />
              <mxPoint x="2150" y="682" />
              <mxPoint x="2150" y="1030" />
            </Array>
          </mxGeometry>
        </mxCell>
        <mxCell id="-hd8qDOLfZRJdEg8atGm-80" value="" style="fontColor=#0066CC;verticalAlign=top;verticalLabelPosition=bottom;labelPosition=center;align=center;html=1;fillColor=#CCCCCC;strokeColor=#6881B3;gradientColor=none;gradientDirection=north;strokeWidth=2;shape=mxgraph.networks.server_storage;rounded=0;shadow=0;comic=0;" vertex="1" parent="1">
          <mxGeometry x="2025" y="280" width="105" height="105" as="geometry" />
        </mxCell>
        <mxCell id="-hd8qDOLfZRJdEg8atGm-77" value="TCP/IP Port 5433" style="text;html=1;align=left;verticalAlign=middle;whiteSpace=wrap;rounded=0;strokeWidth=8;fontSize=29;fontColor=light-dark(#66B2FF,#EDEDED);rotation=-15;" vertex="1" parent="1">
          <mxGeometry x="1682.5" y="637" width="430" height="52.5" as="geometry" />
        </mxCell>
        <mxCell id="-hd8qDOLfZRJdEg8atGm-82" style="edgeStyle=none;html=1;labelBackgroundColor=none;endArrow=none;endFill=0;strokeWidth=2;fontFamily=Verdana;fontSize=28;fontColor=#6881B3;exitX=0.014;exitY=0.648;exitDx=0;exitDy=0;exitPerimeter=0;entryX=0.5;entryY=0;entryDx=0;entryDy=0;entryPerimeter=0;" edge="1" parent="1" source="-hd8qDOLfZRJdEg8atGm-57" target="7c3789c024ecab99-57">
          <mxGeometry relative="1" as="geometry">
            <mxPoint x="1480" y="870" as="targetPoint" />
            <mxPoint x="2012.5" y="577" as="sourcePoint" />
            <Array as="points">
              <mxPoint x="1612.5" y="698.5" />
            </Array>
          </mxGeometry>
        </mxCell>
        <mxCell id="-hd8qDOLfZRJdEg8atGm-83" value="BackEnd" style="text;html=1;align=center;verticalAlign=middle;whiteSpace=wrap;rounded=0;strokeWidth=8;fontSize=29;" vertex="1" parent="1">
          <mxGeometry x="1930" y="410" width="260" height="30" as="geometry" />
        </mxCell>
        <mxCell id="-hd8qDOLfZRJdEg8atGm-84" value="FrontEnd" style="text;html=1;align=center;verticalAlign=middle;whiteSpace=wrap;rounded=0;strokeWidth=8;fontSize=29;" vertex="1" parent="1">
          <mxGeometry x="1510" y="400" width="260" height="30" as="geometry" />
        </mxCell>
        <mxCell id="-hd8qDOLfZRJdEg8atGm-89" style="edgeStyle=orthogonalEdgeStyle;rounded=0;orthogonalLoop=1;jettySize=auto;html=1;entryX=0.32;entryY=0.065;entryDx=0;entryDy=0;entryPerimeter=0;endArrow=none;startFill=0;exitX=0;exitY=0.5;exitDx=0;exitDy=0;exitPerimeter=0;" edge="1" parent="1" source="-hd8qDOLfZRJdEg8atGm-79" target="7c3789c024ecab99-57">
          <mxGeometry relative="1" as="geometry">
            <mxPoint x="1570" y="340" as="sourcePoint" />
            <mxPoint x="1322" y="1454.0799999999997" as="targetPoint" />
            <Array as="points">
              <mxPoint x="1600" y="333" />
              <mxPoint x="1600" y="350" />
              <mxPoint x="1480" y="350" />
              <mxPoint x="1480" y="1014" />
            </Array>
          </mxGeometry>
        </mxCell>
        <mxCell id="-hd8qDOLfZRJdEg8atGm-91" style="edgeStyle=orthogonalEdgeStyle;rounded=0;orthogonalLoop=1;jettySize=auto;html=1;entryX=0.233;entryY=0.495;entryDx=0;entryDy=0;entryPerimeter=0;endArrow=none;startFill=0;" edge="1" parent="1" source="-hd8qDOLfZRJdEg8atGm-79" target="-hd8qDOLfZRJdEg8atGm-80">
          <mxGeometry relative="1" as="geometry">
            <Array as="points">
              <mxPoint x="2050" y="340" />
            </Array>
          </mxGeometry>
        </mxCell>
        <mxCell id="-hd8qDOLfZRJdEg8atGm-93" value="Data Exchange (JSON)" style="text;html=1;align=center;verticalAlign=middle;whiteSpace=wrap;rounded=0;strokeWidth=8;fontSize=29;" vertex="1" parent="1">
          <mxGeometry x="1692.5" y="300" width="320" height="30" as="geometry" />
        </mxCell>
        <mxCell id="-hd8qDOLfZRJdEg8atGm-98" style="edgeStyle=orthogonalEdgeStyle;rounded=0;orthogonalLoop=1;jettySize=auto;html=1;entryX=0.88;entryY=0.5;entryDx=0;entryDy=0;entryPerimeter=0;" edge="1" parent="1">
          <mxGeometry relative="1" as="geometry">
            <mxPoint x="2100" y="572" as="targetPoint" />
            <mxPoint x="2125" y="320" as="sourcePoint" />
            <Array as="points">
              <mxPoint x="2265" y="320" />
              <mxPoint x="2265" y="477" />
              <mxPoint x="2145" y="477" />
              <mxPoint x="2145" y="572" />
            </Array>
          </mxGeometry>
        </mxCell>
        <mxCell id="-hd8qDOLfZRJdEg8atGm-100" value="Interacts with meters via Backend" style="text;whiteSpace=wrap;html=1;fontSize=19;align=center;" vertex="1" parent="1">
          <mxGeometry x="1522.5" y="440" width="247.5" height="40" as="geometry" />
        </mxCell>
        <mxCell id="-hd8qDOLfZRJdEg8atGm-101" value="" style="fontColor=#0066CC;verticalAlign=top;verticalLabelPosition=bottom;labelPosition=center;align=center;html=1;fillColor=#CCCCCC;strokeColor=#6881B3;gradientColor=none;gradientDirection=north;strokeWidth=2;shape=mxgraph.networks.server_storage;rounded=0;shadow=0;comic=0;" vertex="1" parent="1">
          <mxGeometry x="1290" y="280" width="105" height="105" as="geometry" />
        </mxCell>
        <mxCell id="-hd8qDOLfZRJdEg8atGm-102" value="Device Communicator" style="text;html=1;align=center;verticalAlign=middle;whiteSpace=wrap;rounded=0;strokeWidth=8;fontSize=29;" vertex="1" parent="1">
          <mxGeometry x="1200" y="400" width="260" height="30" as="geometry" />
        </mxCell>
        <mxCell id="-hd8qDOLfZRJdEg8atGm-103" style="edgeStyle=orthogonalEdgeStyle;rounded=0;orthogonalLoop=1;jettySize=auto;html=1;entryX=0.371;entryY=0.114;entryDx=0;entryDy=0;entryPerimeter=0;endArrow=none;startFill=0;" edge="1" parent="1" source="-hd8qDOLfZRJdEg8atGm-101" target="-hd8qDOLfZRJdEg8atGm-80">
          <mxGeometry relative="1" as="geometry">
            <Array as="points">
              <mxPoint x="1343" y="250" />
              <mxPoint x="2064" y="250" />
            </Array>
          </mxGeometry>
        </mxCell>
        <mxCell id="-hd8qDOLfZRJdEg8atGm-104" value="Meter Data&lt;div&gt;&lt;br&gt;&lt;/div&gt;" style="text;html=1;align=center;verticalAlign=middle;whiteSpace=wrap;rounded=0;strokeWidth=8;fontSize=29;rotation=0;" vertex="1" parent="1">
          <mxGeometry x="1490" y="229" width="420" height="10" as="geometry" />
        </mxCell>
        <mxCell id="-hd8qDOLfZRJdEg8atGm-106" value="&lt;div&gt;&lt;br&gt;&lt;/div&gt;" style="text;html=1;align=center;verticalAlign=middle;whiteSpace=wrap;rounded=0;strokeWidth=8;fontSize=29;rotation=0;" vertex="1" parent="1">
          <mxGeometry x="2050" y="229" width="420" height="10" as="geometry" />
        </mxCell>
        <mxCell id="-hd8qDOLfZRJdEg8atGm-108" value="HTTPS" style="text;html=1;align=left;verticalAlign=middle;whiteSpace=wrap;rounded=0;strokeWidth=8;fontSize=29;fontColor=light-dark(#66B2FF,#EDEDED);rotation=0;" vertex="1" parent="1">
          <mxGeometry x="2170" y="960" width="120" height="52.5" as="geometry" />
        </mxCell>
      </root>
    </mxGraphModel>
  </diagram>
</mxfile>
